<?xml version="1.0" encoding="utf-8"?>
<!-- Generator: Adobe Illustrator 27.6.1, SVG Export Plug-In . SVG Version: 6.00 Build 0)  -->
<svg version="1.1" id="Layer_2_00000031170527325693477070000009930727831377951900_"
	 xmlns="http://www.w3.org/2000/svg" xmlns:xlink="http://www.w3.org/1999/xlink" x="0px" y="0px" viewBox="0 0 64 64"
	 style="enable-background:new 0 0 64 64;" xml:space="preserve">
<style type="text/css">
	.st0{fill:#FF6561;}
	.st1{fill:#3E9A9E;}
	.st2{fill:#FFFFFF;}
	.st3{fill:none;stroke:#3E9A9E;stroke-width:6;stroke-linejoin:round;stroke-miterlimit:10;}
</style>
<g id="Layer_1-2_00000119116955424930770930000004243314207988438203_">
	<g>
		<path class="st0" d="M-144,23.1c0.4,9.2-2.5,18.8-7.9,25.8c-1.7,2.1-4.2,2.9-6.7,2.1c-4.6-1.7-16.7-7.1-21.7-12.1
			c-0.8-0.8-0.8-2.9,0-4.2c4.6-5,19.2-18.8,28.8-22.5C-146.1,10.2-144.5,16-144,23.1L-144,23.1z"/>
		<path class="st0" d="M-232,12.7c10,3.8,23.8,17.1,28.8,22.5c0.8,0.8,0.8,2.9,0,4.2c-4.6,4.6-17.1,10.4-21.7,12.1
			c-2.5,0.8-5,0-6.7-2.1c-5-7.1-8.3-16.7-7.9-25.8C-239.5,16-238.3,10.2-232,12.7L-232,12.7z"/>
		<path class="st1" d="M-199.1,109l-70-70c-1.7-1.7-4.2-2.9-7.1-2.9h-13.3c-2.1,0-3.3,2.5-1.7,4.2l90.9,90.9
			c1.7,1.7,4.2,0.4,4.2-1.7v-13.3C-196.2,113.2-197,110.7-199.1,109z"/>
		<path class="st1" d="M-184.9-45.3l70,70c1.7,1.7,4.2,2.9,7.1,2.9h13.3c2.1,0,3.3-2.5,1.7-4.2l-90.9-90.9c-1.7-1.7-4.2-0.4-4.2,1.7
			v13.3C-187.8-49.4-187-46.9-184.9-45.3z"/>
		<path class="st1" d="M-269.1,24.8l70-70c1.7-1.7,2.9-4.2,2.9-7.1v-13.4c0-2.1-2.5-3.3-4.2-1.7l-90.9,90.9
			c-1.7,1.7-0.4,4.2,1.7,4.2h13.3C-273.3,27.7-270.8,26.9-269.1,24.8z"/>
		<path class="st1" d="M-114.9,38.9l-70,70c-1.7,1.7-2.9,4.2-2.9,7.1v13.4c0,2.1,2.5,3.3,4.2,1.7l90.9-90.9c1.7-1.7,0.4-4.2-1.7-4.2
			h-13.3C-110.7,36-113.2,36.9-114.9,38.9L-114.9,38.9z"/>
	</g>
</g>
<image style="overflow:visible;" width="310" height="308" xlink:href="../../../../../Downloads/ada96852a142384ff8eb1b48a69154ff.jpg"  transform="matrix(0.75 0 0 0.75 156 -31)">
</image>
<path class="st2" d="M196.2,38.9c0,0-13,30-1,61s48.4,33.2,57.2-15.4C252.4,84.5,240.2,57.9,196.2,38.9z"/>
<rect x="11.5" y="11.5" transform="matrix(0.7071 0.7071 -0.7071 0.7071 32 -13.2548)" class="st3" width="41" height="41"/>
<g>
	<g>
		<path class="st0" d="M44.8,25.1c0.5-0.2,1,0,1.2,0.5c0.6,1.7,1.6,5.6-0.2,9.7c-2.2,5-8.6,5.6-10.6-1.5c-0.2-0.8,0-1.7,0.5-2.5
			C36.9,29.8,39.6,27.2,44.8,25.1z"/>
	</g>
	<g>
		<path class="st0" d="M19.2,25.1c-0.5-0.2-1,0-1.2,0.5c-0.6,1.7-1.6,5.6,0.2,9.7c2.2,5,8.6,5.6,10.6-1.5c0.2-0.8,0-1.7-0.5-2.5
			C27.1,29.8,24.4,27.2,19.2,25.1z"/>
	</g>
</g>
</svg>
