<?xml version="1.0" encoding="UTF-8"?>
<svg id="Layer_2" data-name="Layer 2" xmlns="http://www.w3.org/2000/svg" viewBox="0 0 691 266.9">
  <defs>
    <style>
      .cls-1 {
        fill: #ff6561;
      }
    </style>
  </defs>
  <g id="Layer_1-2" data-name="Layer 1">
    <path class="cls-1" d="m0,97.1L44.4,0h10.1l44.4,97.1h-10.8L47.3,6h4.2L10.7,97.1H0Zm17.5-25.9l3.1-8.3h56.5l3.1,8.3H17.5Zm104.4,25.9V0h8.5l44.4,75.7h-4.4L214.4,0h8.5v97.1h-9.8V15.4h2.4l-40.8,69.4h-4.9L129,15.4h2.6v81.7h-9.7Zm123.9,0L290.2,0h10.1l44.4,97.1h-10.8L293.1,6h4.2l-40.8,91.1h-10.7Zm17.5-25.9l3.1-8.3h56.5l3.1,8.3h-62.7Zm104.4,25.9V0h8.5l67,84.3h-4.5V0h10.1v97.1h-8.5L373.4,12.8h4.4v84.3h-10.1Zm119.8,0V0h39.5c10.4,0,19.4,2.1,27.2,6.2,7.9,4.1,14,9.8,18.3,17.1,4.3,7.3,6.5,15.7,6.5,25.2s-2.2,17.9-6.5,25.2c-4.4,7.3-10.5,13-18.3,17.2-7.8,4.1-16.8,6.1-27.2,6.1h-39.5v.1h0Zm10.2-8.9h28.7c8.6,0,16.1-1.7,22.3-5,6.4-3.4,11.3-8.1,14.8-14,3.5-6,5.3-12.9,5.3-20.7s-1.8-14.8-5.3-20.7c-3.5-5.9-8.5-10.5-14.8-13.9s-13.7-5.1-22.3-5.1h-28.7v79.4Zm94.4,8.9L636.5,0h10.1l44.4,97.1h-10.8l-40.8-91.1h4.2l-40.8,91.1h-10.7Zm17.5-25.9l3.1-8.3h56.5l3.1,8.3h-62.7ZM42.3,266.9c-7.2,0-14.1-1.2-20.8-3.5-6.6-2.4-11.7-5.5-15.3-9.2l4-7.9c3.4,3.3,8,6.1,13.7,8.5,5.8,2.2,11.9,3.3,18.3,3.3s11.1-.7,14.8-2.2c3.9-1.6,6.7-3.7,8.5-6.2,1.8-2.6,2.8-5.5,2.8-8.6,0-3.8-1.1-6.8-3.3-9.2-2.1-2.3-4.9-4.1-8.5-5.4-3.5-1.4-7.4-2.6-11.7-3.6s-8.5-2.1-12.8-3.2c-4.3-1.2-8.2-2.8-11.8-4.7-3.5-1.9-6.4-4.5-8.6-7.6-2.1-3.2-3.2-7.4-3.2-12.6,0-4.8,1.2-9.2,3.7-13.2,2.6-4.1,6.5-7.3,11.8-9.7,5.3-2.5,12-3.7,20.3-3.7,5.5,0,10.9.8,16.2,2.4,5.4,1.5,10,3.6,13.9,6.2l-3.5,8.2c-4.2-2.8-8.6-4.8-13.3-6.1-4.6-1.3-9.1-1.9-13.5-1.9-5.8,0-10.6.8-14.4,2.4-3.8,1.6-6.6,3.7-8.5,6.4-1.8,2.6-2.6,5.5-2.6,8.9,0,3.8,1.1,6.8,3.2,9.2,2.2,2.3,5.1,4.1,8.6,5.4,3.6,1.3,7.5,2.5,11.8,3.5s8.5,2.1,12.6,3.3c4.3,1.2,8.1,2.8,11.7,4.7,3.6,1.8,6.5,4.3,8.6,7.5,2.2,3.1,3.3,7.3,3.3,12.3,0,4.7-1.3,9.1-3.9,13.2-2.6,4-6.6,7.2-11.9,9.7-5.1,2.2-11.9,3.4-20.2,3.4Zm50-.8l44.4-97.1h10.1l44.4,97.1h-10.8l-40.8-91.1h4.2l-40.9,91.1h-10.6Zm17.4-25.9l3.1-8.3h56.5l3.1,8.3h-62.7Zm113.6-27.8h51.3v8.7h-51.3v-8.7Zm1.1,44.8h58.4v8.9h-68.7v-97.1h66.6v8.9h-56.3v79.3Zm89.5,8.9v-97.1h8.5l67,84.3h-4.4v-84.3h10.1v97.1h-8.5l-66.9-84.3h4.4v84.3h-10.2Zm110.2,0v-7.1l67.4-85,1.1,3.9h-67.6v-8.9h77v7.1l-67.3,85-1.2-3.9h70.2v8.9h-79.6Z"/>
  </g>
</svg>