<?xml version="1.0" encoding="utf-8"?>
<!-- Generator: Adobe Illustrator 27.6.1, SVG Export Plug-In . SVG Version: 6.00 Build 0)  -->
<svg version="1.1" id="Layer_2_00000059287008275292178710000006397227807473716413_"
	 xmlns="http://www.w3.org/2000/svg" xmlns:xlink="http://www.w3.org/1999/xlink" x="0px" y="0px" viewBox="0 0 793.6 322.3"
	 style="enable-background:new 0 0 793.6 322.3;" xml:space="preserve">
<style type="text/css">
	.st0{fill:#FF6561;}
</style>
<g>
	<g>
		<path class="st0" d="M24.4,85.1h68.7l15.2,33.3h9.3L63.1,0h-8.6L0,118.4h9.3L24.4,85.1z M58.7,9.5l31.1,68.3H27.7L58.7,9.5z"/>
		<polygon class="st0" points="147.5,17.4 197.1,102.7 201.3,102.7 250.9,17.1 251.1,118.4 259.5,118.4 259.4,0 252.2,0 199.4,91.5 
			146.3,0 139.1,0 139.1,118.4 147.5,118.4 		"/>
		<path class="st0" d="M305.4,85.1h68.7l15.2,33.3h9.3L344.1,0h-8.6L281,118.4h9.3L305.4,85.1z M339.7,9.5l31.1,68.3h-62.1
			L339.7,9.5z"/>
		<polygon class="st0" points="428.7,15.6 509.4,118.4 516.5,118.4 516.5,0 507.9,0 507.9,102.8 427.3,0 420.1,0 420.1,118.4 
			428.7,118.4 		"/>
		<path class="st0" d="M637.6,7.6c-9.5-5.1-20.5-7.6-33-7.6h-46.9v118.4h46.9c12.5,0,23.5-2.5,33-7.6c9.5-5.1,16.8-12.1,22.1-21
			c5.2-8.9,7.9-19.1,7.9-30.6s-2.6-21.7-7.9-30.6C654.5,19.7,647.1,12.7,637.6,7.6z M652.2,85.9c-4.5,7.7-10.9,13.8-19.1,18.2
			c-8.2,4.4-17.9,6.6-29.1,6.6h-37.6V7.8H604c11.2,0,20.9,2.2,29.1,6.6c8.2,4.4,14.6,10.5,19.1,18.2c4.5,7.7,6.8,16.6,6.8,26.6
			C659,69.3,656.7,78.1,652.2,85.9z"/>
		<path class="st0" d="M784.3,118.4h9.3L739.1,0h-8.6L676,118.4h9.3l15.1-33.3h68.7L784.3,118.4z M703.8,77.8l31-68.3l31.1,68.3
			H703.8z"/>
	</g>
	<g>
		<path class="st0" d="M71.1,267c-4.4-2.3-9.2-4.1-14.4-5.5c-5.2-1.4-10.4-2.7-15.7-4c-5.3-1.2-10.2-2.8-14.5-4.6
			c-4.4-1.8-7.9-4.2-10.6-7.3c-2.7-3-4-7.1-4-12.2c0-4.4,1.2-8.4,3.6-11.9c2.4-3.6,6-6.4,11-8.5c5-2.1,11.2-3.2,18.8-3.2
			c5.3,0,10.8,0.8,16.5,2.5c5.7,1.6,11,4.1,16,7.5l3.2-6.9c-4.5-3.3-10-5.9-16.3-7.8c-6.4-1.9-12.8-2.9-19.4-2.9
			c-9.7,0-17.7,1.5-23.9,4.4c-6.2,2.9-10.8,6.8-13.7,11.5c-2.9,4.7-4.4,9.9-4.4,15.6c0,6.2,1.3,11.3,4,15.1c2.6,3.9,6.2,7,10.6,9.2
			c4.4,2.3,9.2,4.1,14.5,5.5c5.3,1.4,10.5,2.7,15.7,4c5.2,1.2,10,2.8,14.4,4.6c4.4,1.8,8,4.2,10.7,7.3s4.1,7.1,4.1,12.2
			c0,4.3-1.2,8.2-3.6,11.7c-2.4,3.5-6.1,6.3-11.2,8.4c-5,2.1-11.5,3.1-19.4,3.1c-7.9,0-15.4-1.4-22.4-4.3
			C13.5,307.5,8,304,3.9,299.8L0,306.2c4.3,4.7,10.3,8.6,18.2,11.6c7.8,3,16.2,4.5,25,4.5c9.8,0,17.8-1.4,24.1-4.3
			c6.3-2.9,10.9-6.7,14-11.5c3-4.8,4.6-10,4.6-15.5c0-6.1-1.4-11.1-4.1-14.9C79,272.3,75.5,269.2,71.1,267z"/>
		<path class="st0" d="M149.7,203L95.2,321.4h9.3l15.1-33.3h68.7l15.2,33.3h9.3L158.4,203H149.7z M123,280.8l31-68.3l31.1,68.3H123z
			"/>
		<polygon class="st0" points="242.9,265.1 306,265.1 306,257.5 242.9,257.5 242.9,210.8 313.5,210.8 313.5,203 234.3,203 
			234.3,321.4 316,321.4 316,313.7 242.9,313.7 		"/>
		<polygon class="st0" points="435.3,305.8 354.8,203 347.5,203 347.5,321.4 356.1,321.4 356.1,218.6 436.8,321.4 443.9,321.4 
			443.9,203 435.3,203 		"/>
		<polygon class="st0" points="566.1,209.1 566.1,203 473.5,203 473.5,210.8 554.3,210.8 472.5,315.4 472.5,321.4 567.9,321.4 
			567.9,313.7 484.5,313.7 		"/>
	</g>
</g>
</svg>
